<?xml version="1.0" standalone="no"?>
<!DOCTYPE svg PUBLIC "-//W3C//DTD SVG 20010904//EN"
 "http://www.w3.org/TR/2001/REC-SVG-20010904/DTD/svg10.dtd">
<svg version="1.0" xmlns="http://www.w3.org/2000/svg"
 width="512.000000pt" height="512.000000pt" viewBox="0 0 512.000000 512.000000"
 preserveAspectRatio="xMidYMid meet">

<g transform="translate(0.000000,512.000000) scale(0.100000,-0.100000)"
fill="#606770" stroke="none">
<path d="M2323 5110 c-598 -58 -1146 -316 -1571 -740 -397 -397 -640 -882
-729 -1460 -24 -161 -24 -539 0 -700 89 -577 330 -1059 727 -1458 397 -397
882 -640 1460 -729 161 -24 539 -24 700 0 577 89 1059 330 1458 727 397 397
640 882 729 1460 24 161 24 539 0 700 -89 577 -330 1059 -727 1458 -394 395
-885 641 -1450 727 -125 19 -468 27 -597 15z m379 -1445 c148 -31 245 -82 331
-174 144 -154 151 -371 18 -573 -44 -67 -98 -122 -269 -279 -82 -75 -110 -135
-118 -254 -7 -111 -18 -141 -58 -163 -40 -21 -171 -23 -209 -3 -45 24 -61 74
-60 182 2 223 61 324 304 526 110 91 144 151 137 243 -5 67 -24 101 -78 137
-46 32 -93 43 -181 43 -123 0 -175 -27 -257 -132 -58 -75 -88 -91 -148 -82
-133 20 -183 141 -114 280 56 114 198 215 351 248 87 19 261 19 351 1z m-141
-1676 c148 -45 202 -232 101 -349 -88 -104 -241 -107 -329 -7 -41 47 -56 96
-51 168 6 79 43 134 117 172 59 29 102 33 162 16z"/>
</g>
</svg>
